<svg xmlns="http://www.w3.org/2000/svg" xmlns:xlink="http://www.w3.org/1999/xlink" width="210" zoomAndPan="magnify" viewBox="0 0 157.5 89.999999" height="120" preserveAspectRatio="xMidYMid meet" version="1.2"><defs><clipPath id="29fd5daef2"><path d="M 134 0.140625 L 154 0.140625 L 154 68 L 134 68 Z M 134 0.140625 "/></clipPath><clipPath id="e934a77f5b"><path d="M 134.746094 0.140625 L 154.199219 0.140625 L 154.199219 19.59375 L 134.746094 19.59375 Z M 134.746094 0.140625 "/></clipPath><clipPath id="7e2fc83574"><path d="M 144.472656 0.140625 C 139.101562 0.140625 134.746094 4.496094 134.746094 9.867188 C 134.746094 15.238281 139.101562 19.59375 144.472656 19.59375 C 149.84375 19.59375 154.199219 15.238281 154.199219 9.867188 C 154.199219 4.496094 149.84375 0.140625 144.472656 0.140625 Z M 144.472656 0.140625 "/></clipPath></defs><g id="6e2be4f26c"><g style="fill:#000000;fill-opacity:1;"><g transform="translate(-2.707102, 67.877939)"><path style="stroke:none" d="M 21.007812 0 L 21.007812 -26.855469 C 22.835938 -29.046875 27.3125 -29.960938 30.785156 -29.960938 C 32.335938 -29.960938 33.707031 -29.777344 34.527344 -29.503906 L 34.527344 -45.214844 C 29.503906 -45.214844 23.75 -42.292969 21.007812 -39.097656 L 21.007812 -44.121094 L 4.566406 -44.121094 L 4.566406 0 Z M 21.007812 0 "/></g></g><g style="fill:#000000;fill-opacity:1;"><g transform="translate(32.910698, 67.877939)"><path style="stroke:none" d="M 1.554688 -22.105469 C 1.554688 -7.582031 12.332031 1.097656 26.125 1.097656 C 32.703125 1.097656 40.558594 -0.640625 44.941406 -4.382812 L 38.183594 -14.523438 C 35.992188 -12.789062 31.972656 -11.417969 28.226562 -11.417969 C 22.652344 -11.417969 19.457031 -14.160156 18.542969 -16.992188 L 48.503906 -16.992188 L 48.503906 -20.371094 C 48.503906 -35.898438 38.546875 -45.214844 25.578125 -45.214844 C 11.328125 -45.214844 1.554688 -34.894531 1.554688 -22.105469 Z M 25.578125 -32.703125 C 30.875 -32.703125 32.429688 -29.320312 32.882812 -27.402344 L 18.359375 -27.402344 C 18.910156 -29.414062 20.554688 -32.703125 25.578125 -32.703125 Z M 25.578125 -32.703125 "/></g></g><g style="fill:#000000;fill-opacity:1;"><g transform="translate(82.501653, 67.877939)"><path style="stroke:none" d="M 33.160156 0 L 50.242188 -44.121094 L 32.882812 -44.121094 L 24.390625 -18.910156 L 15.984375 -44.121094 L -1.371094 -44.121094 L 15.710938 0 Z M 33.160156 0 "/></g></g><g clip-rule="nonzero" clip-path="url(#29fd5daef2)"><g style="fill:#000000;fill-opacity:1;"><g transform="translate(131.36198, 67.877939)"><path style="stroke:none" d="M 12.789062 -48.6875 C 17.902344 -48.6875 22.015625 -52.796875 22.015625 -57.914062 C 22.015625 -63.027344 17.902344 -67.140625 12.789062 -67.140625 C 7.671875 -67.140625 3.5625 -63.027344 3.5625 -57.914062 C 3.5625 -52.796875 7.671875 -48.6875 12.789062 -48.6875 Z M 21.007812 0 L 21.007812 -44.121094 L 4.566406 -44.121094 L 4.566406 0 Z M 21.007812 0 "/></g></g></g><g clip-rule="nonzero" clip-path="url(#e934a77f5b)"><g clip-rule="nonzero" clip-path="url(#7e2fc83574)"><path style=" stroke:none;fill-rule:nonzero;fill:#0fb0f0;fill-opacity:1;" d="M 134.746094 0.140625 L 154.199219 0.140625 L 154.199219 19.59375 L 134.746094 19.59375 Z M 134.746094 0.140625 "/></g></g></g></svg>